<svg width="20" height="20" viewBox="0 0 20 20" fill="none" xmlns="http://www.w3.org/2000/svg">
<path d="M10.0172 2.4248C7.25883 2.4248 5.01717 4.66647 5.01717 7.4248V9.83314C5.01717 10.3415 4.8005 11.1165 4.54217 11.5498L3.58383 13.1415C2.99217 14.1248 3.4005 15.2165 4.48383 15.5831C8.0755 16.7831 11.9505 16.7831 15.5422 15.5831C16.5505 15.2498 16.9922 14.0581 16.4422 13.1415L15.4838 11.5498C15.2338 11.1165 15.0172 10.3415 15.0172 9.83314V7.4248C15.0172 4.6748 12.7672 2.4248 10.0172 2.4248Z" stroke="#161615" stroke-width="1.5" stroke-miterlimit="10" stroke-linecap="round"/>
<path d="M11.5584 2.66621C11.3 2.59121 11.0334 2.53288 10.7584 2.49954C9.95837 2.39954 9.1917 2.45788 8.47504 2.66621C8.7167 2.04954 9.3167 1.61621 10.0167 1.61621C10.7167 1.61621 11.3167 2.04954 11.5584 2.66621Z" stroke="#161615" stroke-width="1.5" stroke-miterlimit="10" stroke-linecap="round" stroke-linejoin="round"/>
<path d="M12.5163 15.8838C12.5163 17.2588 11.3913 18.3838 10.0163 18.3838C9.33296 18.3838 8.69963 18.1005 8.24963 17.6505C7.79963 17.2005 7.5163 16.5671 7.5163 15.8838" stroke="#161615" stroke-width="1.5" stroke-miterlimit="10"/>
</svg>
