<svg width="36" height="36" viewBox="0 0 36 36" fill="none" xmlns="http://www.w3.org/2000/svg">
<path d="M14.8682 9.07197C14.4385 4.12872 9.28146 1.70322 9.06321 1.60422C8.85919 1.50832 8.63054 1.47767 8.40846 1.51647C2.45496 2.50422 1.55946 5.96922 1.52346 6.11322C1.47448 6.31389 1.48227 6.52423 1.54596 6.72072C8.64696 28.7527 23.4047 32.8365 28.2557 34.1797C28.6292 34.2832 28.9375 34.3665 29.1715 34.443C29.4385 34.5302 29.7286 34.5133 29.9837 34.3957C30.1322 34.3282 33.6377 32.6767 34.495 27.2902C34.533 27.0551 34.4952 26.8139 34.387 26.6017C34.3105 26.4532 32.4767 22.9635 27.3917 21.7305C27.2192 21.6864 27.0386 21.6848 26.8653 21.726C26.6921 21.7671 26.5314 21.8497 26.3972 21.9667C24.793 23.337 22.5767 24.7972 21.6205 24.948C15.2102 21.8137 11.6305 15.7995 11.4955 14.6587C11.4167 14.0175 12.886 11.7652 14.5757 9.93372C14.6819 9.81846 14.7628 9.68223 14.8132 9.53381C14.8636 9.3854 14.8823 9.22807 14.8682 9.07197Z" fill="#32B22E"/>
</svg>
