<svg width="40" height="40" viewBox="0 0 40 40" fill="none" xmlns="http://www.w3.org/2000/svg">
<path d="M33.674 8.82594C32.6444 9.0889 31.6407 9.34814 30.637 9.6037C27.0185 10.5333 23.3963 11.463 19.774 12.3815C19.5555 12.4371 19.2963 12.4407 19.074 12.3852C14.1814 11.1407 9.28889 9.88518 4.39629 8.62962C3.95554 8.51482 3.7185 8.26298 3.7148 7.9111C3.71109 7.55558 3.93702 7.3037 4.38517 7.1889C9.31109 5.92222 14.237 4.65558 19.1666 3.40001C19.374 3.34816 19.6185 3.37408 19.8296 3.42964C24.0296 4.5037 28.2259 5.58518 32.4222 6.66666C33.0814 6.83706 33.7407 7.0037 34.4 7.17778C34.9852 7.33334 35.1296 7.52222 35.1296 8.14446C35.1296 11.0519 35.1333 13.9593 35.1259 16.863C35.1259 17.1296 35.1889 17.2741 35.4407 17.4148C36.1592 17.8074 36.5296 18.4407 36.5222 19.2667C36.5148 20.0926 36.1185 20.6963 35.4111 21.1074C35.3074 21.1667 35.2259 21.263 35.1333 21.3407C35.2296 21.4148 35.3148 21.5037 35.4185 21.5555C35.8666 21.7815 36.1666 22.1296 36.2111 22.6296C36.3148 23.7 36.4074 24.7741 36.4666 25.8481C36.5074 26.5926 35.9481 27.2037 35.1852 27.2667C34.6852 27.3074 34.1778 27.3074 33.6814 27.2704C32.8518 27.2074 32.3222 26.5593 32.3852 25.7259C32.4592 24.7371 32.537 23.7481 32.6148 22.7556C32.6592 22.163 32.9666 21.7593 33.5074 21.5148C33.5852 21.4815 33.6444 21.4111 33.7148 21.3555C33.6518 21.2852 33.6 21.1852 33.5185 21.1445C32.7518 20.7407 32.3333 20.1185 32.3296 19.2445C32.3259 18.3704 32.7518 17.7555 33.5074 17.3333C33.6074 17.2778 33.7111 17.1296 33.7111 17.0222C33.7222 14.3445 33.7185 11.663 33.7185 8.98518C33.7074 8.94814 33.6926 8.91482 33.674 8.82594ZM23.574 7.13334C23.574 6.79258 23.3666 6.53706 22.9704 6.43334C21.8629 6.14446 20.7518 5.85926 19.637 5.58518C19.4926 5.54814 19.3259 5.55558 19.1778 5.59258C18.0778 5.86666 16.9778 6.14814 15.8778 6.43334C15.4185 6.55186 15.174 6.90742 15.2704 7.2963C15.374 7.7111 15.7444 7.9111 16.2259 7.79258C17.2 7.55186 18.1704 7.2963 19.1444 7.05926C19.3111 7.01854 19.5 7.01482 19.6629 7.05186C20.6592 7.29258 21.6518 7.55926 22.6518 7.8037C23.1555 7.92594 23.5778 7.60742 23.574 7.13334Z" fill="white"/>
<path d="M19.4259 26.6148C16.2 26.6222 13.5518 23.9963 13.5407 20.7704C13.5259 17.5296 16.1667 14.8778 19.4148 14.8778C22.6556 14.8778 25.2889 17.4926 25.2963 20.7222C25.3037 23.9704 22.6815 26.6037 19.4259 26.6148ZM19.4667 16.6889C19.1148 16.6815 18.8222 16.8889 18.7518 17.2185C18.7074 17.4259 18.6037 17.5333 18.4222 17.6333C17.6333 18.0667 17.237 18.9556 17.4185 19.8259C17.6 20.7074 18.337 21.3518 19.2518 21.4333C19.3815 21.4444 19.5148 21.4556 19.6407 21.4963C19.9222 21.5889 20.0926 21.8926 20.0482 22.1778C19.9963 22.4852 19.7333 22.7148 19.4259 22.7148C19.0889 22.7185 18.9185 22.5074 18.7889 22.2259C18.6074 21.8296 18.2444 21.6815 17.8815 21.8333C17.5185 21.9852 17.3556 22.3518 17.5 22.7556C17.6667 23.237 17.9704 23.6148 18.4222 23.8556C18.6037 23.9482 18.7148 24.0518 18.7592 24.2667C18.8296 24.6037 19.1074 24.8037 19.4333 24.7926C19.7889 24.7815 20.0333 24.5889 20.0963 24.2482C20.137 24.0408 20.2407 23.9556 20.4037 23.863C21.2889 23.3704 21.6926 22.3408 21.3407 21.4037C21.0296 20.5778 20.4185 20.1185 19.5296 20.0482C18.9926 20.0074 18.6963 19.6815 18.8074 19.2556C18.8815 18.9704 19.0704 18.7963 19.363 18.7704C19.7111 18.737 19.9074 18.9408 20.0444 19.2408C20.2259 19.6444 20.5815 19.8 20.9444 19.6593C21.3185 19.5148 21.4852 19.1259 21.337 18.7111C21.1704 18.2444 20.8778 17.8704 20.437 17.637C20.2482 17.537 20.1259 17.4333 20.0815 17.2037C20.0148 16.8778 19.7592 16.7222 19.4667 16.6889Z" fill="white"/>
<path d="M8.91113 33.4148C8.91113 31.4148 8.91113 29.4481 8.91113 27.4148C9.72965 27.4555 10.5333 27.4444 11.3222 27.5481C12.0741 27.6481 12.6889 28.0778 13.2371 28.6037C14.2111 29.537 15.3926 30.0037 16.7371 30.0222C17.9074 30.037 19.0815 30.0259 20.2519 30.0296C20.3704 30.0296 20.4926 30.0222 20.6111 30.0407C21 30.1037 21.2741 30.4407 21.2407 30.7926C21.2074 31.1444 20.9185 31.3963 20.5222 31.4C19.9963 31.4074 19.4704 31.4037 18.9445 31.4037C17.8333 31.4037 16.7185 31.4 15.6074 31.4037C15.1111 31.4037 14.7778 31.6852 14.7667 32.0963C14.7556 32.5222 15.0926 32.8185 15.6111 32.8185C17.2371 32.8222 18.863 32.8185 20.4926 32.8185C21 32.8185 21.4482 32.6555 21.8667 32.3704C23.6259 31.1778 25.3926 29.9889 27.1556 28.8C27.8704 28.3185 28.6037 28.3148 29.2333 28.7963C28.4741 29.4222 27.7185 30.0481 26.963 30.6704C25.1074 32.2 23.2482 33.7222 21.3963 35.2555C19.2963 36.9926 16.7704 37.0889 14.563 35.5037C14.0889 35.163 13.6037 34.8296 13.1333 34.4778C12.1482 33.7444 11.0445 33.3889 9.81853 33.4111C9.52593 33.4185 9.22965 33.4148 8.91113 33.4148Z" fill="white"/>
<path d="M7.88516 10.9741C11.2333 11.8334 14.5666 12.6889 17.9592 13.5593C14.3555 14.6186 12.4037 16.9593 12.0963 20.7556C11.2111 20.5223 10.2963 20.3741 9.45552 20.0371C8.45924 19.6371 7.88888 18.7889 7.86664 17.7112C7.81852 15.526 7.84812 13.3371 7.84812 11.1482C7.85184 11.1038 7.86664 11.0593 7.88516 10.9741Z" fill="white"/>
<path d="M30.9963 10.9667C30.9963 11.1519 30.9963 11.2667 30.9963 11.3852C30.9963 13.3593 31 15.3334 30.9963 17.3074C30.9925 18.8778 30.2444 19.863 28.7222 20.2852C28.0815 20.463 27.4296 20.6 26.7481 20.763C26.4666 17.0037 24.5296 14.6296 20.8925 13.563C24.2815 12.6889 27.6037 11.8371 30.9963 10.9667Z" fill="white"/>
<path d="M3.48148 26.1519C4.62221 26.1519 5.74073 26.1408 6.86297 26.1593C7.24073 26.1667 7.47777 26.4741 7.48889 26.9C7.50001 27.3778 7.49261 27.8556 7.49261 28.3333C7.49261 30.1852 7.49261 32.0371 7.49261 33.8889C7.49261 34.6667 7.27409 34.8815 6.48517 34.8815C5.49629 34.8815 4.50369 34.8815 3.48518 34.8815C3.48148 31.9667 3.48148 29.0852 3.48148 26.1519ZM5.93333 32.7889C5.94445 32.3926 5.64445 32.0704 5.25557 32.0593C4.88517 32.0482 4.56297 32.3482 4.54445 32.7186C4.52221 33.1148 4.81481 33.4408 5.20369 33.4667C5.58889 33.4889 5.92221 33.1815 5.93333 32.7889Z" fill="white"/>
</svg>
